/* XPM */
static char * icon32x32_xpm[] = {
"32 32 10 1",
" 	c None",
".	c #008088",
"+	c #3F9FA5",
"@	c #7EBEC2",
"#	c #FCFCFC",
"$	c #39607C",
"%	c #724070",
"&	c #787F99",
"*	c #E40058",
"=	c #AB2064",
"                ...             ",
"                ...             ",
"                ...             ",
"                ...             ",
"                ...             ",
"                ...             ",
"               .....            ",
"              .......           ",
"             .........          ",
"            ...........         ",
"           .............        ",
"          ...............       ",
"         .................      ",
"        ...................     ",
"       .....................    ",
"      .......................   ",
"     .........................  ",
"    ........................... ",
"   .........+@+.....+@+.........",
"  ..........@#@.....@#@.........",
"  ........+@@@@@+.+@@@@@+.......",
"  ........@#@.@#@.@#@.@#@.......",
"  ........@#@.@#@.@#@.@#@.......",
"  ........@#@.@#@.@#@.@#@.......",
"  ......$%&@@@@@+.+@@@@@&%$.....",
"  ......%*%.@#@.....@#@.%*%.....",
"  ......%*=%&@+.....+@&%=*%.....",
"  ......%***%.........%***%.....",
"   .....$%=*=%%%%%%%%%=*=%$.....",
"    ......%*************%...... ",
"     .....$%%%%%%%%%%%%%$.....  ",
"        ...................     "};
